<?xml version="1.0" standalone="no"?>
<!DOCTYPE svg PUBLIC "-//W3C//DTD SVG 20010904//EN"
 "http://www.w3.org/TR/2001/REC-SVG-20010904/DTD/svg10.dtd">
<svg version="1.0" xmlns="http://www.w3.org/2000/svg"
 width="452.000000pt" height="452.000000pt" viewBox="0 0 452.000000 452.000000"
 preserveAspectRatio="xMidYMid meet">
<metadata>
Created by potrace 1.11, written by Peter Selinger 2001-2013
</metadata>
<g transform="translate(0.000000,452.000000) scale(0.100000,-0.100000)"
fill="#000000" stroke="none">
<path d="M0 4311 c0 -207 3 -241 22 -241 5 0 6 6 2 13 -5 9 -4 9 6 0 9 -8 20
-9 37 -2 28 10 47 3 40 -15 -3 -7 1 -13 9 -13 8 0 14 8 14 18 0 22 36 44 45
29 4 -6 16 -8 28 -4 12 4 36 6 54 6 19 -1 36 5 41 14 9 16 42 10 42 -8 0 -7 4
-7 13 0 18 15 77 25 77 14 0 -6 29 -12 65 -14 60 -3 88 5 48 15 -10 2 4 1 31
-1 35 -4 47 -2 42 7 -4 6 -3 11 3 11 5 0 11 -6 14 -12 4 -10 7 -10 18 0 16 14
49 16 49 2 0 -6 40 -10 100 -10 85 0 100 2 100 16 0 11 5 14 16 10 9 -3 18 -6
20 -6 2 0 4 -7 4 -15 0 -9 9 -15 25 -15 14 0 29 -8 36 -21 7 -14 17 -19 31
-16 14 4 18 2 14 -8 -3 -8 5 -21 17 -30 l21 -15 -21 0 c-18 0 -21 -5 -20 -32
2 -28 -1 -33 -21 -32 -14 0 -21 -4 -18 -11 2 -7 -6 -18 -20 -25 l-24 -13 26
-24 c14 -12 29 -23 34 -23 5 0 8 -21 6 -47 -3 -61 2 -83 21 -83 11 0 14 -7 11
-25 -3 -14 -1 -25 4 -25 6 0 8 -16 6 -35 -2 -19 -1 -35 4 -35 4 0 5 -7 2 -15
-4 -8 -1 -15 5 -15 6 0 11 -11 11 -25 0 -14 5 -25 11 -25 8 0 8 -4 0 -13 -8
-10 -7 -17 2 -27 6 -7 7 -10 1 -7 -15 9 -36 -63 -23 -79 7 -8 5 -34 -6 -81
-32 -137 -60 -422 -42 -439 4 -4 7 18 7 49 0 74 39 349 51 362 12 12 12 6 -6
-90 -8 -44 -14 -107 -13 -140 l1 -60 6 52 c4 28 9 55 13 58 3 3 16 -11 29 -32
13 -21 26 -39 29 -40 3 -2 3 -39 0 -84 -3 -44 -2 -83 1 -85 3 -2 9 -50 12
-106 12 -217 85 -520 172 -722 16 -37 16 -38 -2 -32 -17 7 -17 6 -1 -10 13
-13 32 -16 80 -15 70 2 88 4 88 6 0 1 -15 63 -34 138 -19 75 -37 173 -41 219
-3 46 -8 98 -11 115 -4 27 -2 32 11 27 10 -4 15 0 15 11 0 9 9 19 20 22 21 5
28 33 9 33 -5 0 -7 -4 -4 -10 3 -5 -1 -10 -10 -10 -9 0 -13 5 -10 10 8 13 -1
13 -26 0 -15 -8 -19 -7 -19 4 0 7 7 17 16 20 12 5 15 16 12 45 -2 28 0 37 9
34 20 -8 15 18 -8 43 -16 17 -24 47 -35 138 -14 113 -14 116 8 158 20 37 22
60 25 193 3 193 28 300 80 345 18 17 40 30 48 30 8 0 14 3 14 8 -3 20 3 32 17
32 8 0 12 5 9 10 -3 6 5 10 19 10 13 0 26 5 28 12 3 9 15 8 48 -5 29 -11 47
-13 55 -7 7 5 14 8 17 5 2 -3 34 -6 71 -8 36 -2 72 -9 80 -16 10 -7 23 -8 38
-3 15 6 33 5 47 -1 15 -7 26 -7 30 -1 4 5 18 11 30 11 13 1 29 8 35 16 14 17
43 28 51 19 13 -12 41 -10 58 5 9 8 22 12 27 8 6 -3 16 -3 23 1 7 4 24 8 39 8
15 1 30 4 34 8 4 4 13 4 20 2 7 -3 15 3 18 13 3 10 5 4 6 -14 1 -24 5 -31 15
-27 8 3 24 0 36 -6 16 -9 29 -9 49 0 21 8 38 8 72 -1 24 -6 82 -13 127 -15 46
-3 92 -9 102 -14 25 -13 33 -13 24 2 -4 7 -3 8 4 4 7 -4 12 -14 12 -22 0 -13
14 -18 48 -17 6 1 12 -3 12 -7 0 -5 9 -12 20 -15 11 -3 20 -14 20 -23 1 -15 3
-14 17 3 15 20 15 19 10 -4 -4 -16 1 -37 14 -57 11 -18 16 -35 11 -38 -6 -3
-5 -25 1 -53 11 -55 11 -63 4 -160 -4 -45 -3 -73 3 -73 6 0 10 -7 10 -16 0 -8
14 -28 31 -43 24 -23 32 -39 35 -77 5 -53 11 -65 23 -46 5 9 11 5 19 -13 16
-34 15 -38 -5 -30 -15 5 -16 4 -5 -6 18 -19 15 -36 -8 -42 -17 -4 -20 0 -20
26 -1 32 -1 32 -18 11 -18 -22 -36 -21 -63 3 -9 7 -26 15 -37 18 -11 2 -29 8
-39 13 -28 14 -85 8 -116 -13 -16 -10 -52 -22 -80 -26 -29 -5 -53 -13 -55 -19
-2 -5 -10 -10 -17 -10 -7 0 -36 -12 -65 -26 -28 -14 -63 -28 -77 -30 -44 -8
-93 -32 -100 -50 -3 -9 -20 -23 -37 -30 -28 -13 -19 -14 105 -12 104 2 141 7
155 18 54 43 122 66 207 69 73 3 107 -10 107 -40 0 -12 10 -24 28 -30 30 -12
97 -21 88 -12 -6 7 40 33 58 33 16 0 20 -59 5 -76 -9 -11 -7 -14 10 -14 40 0
61 -18 60 -53 0 -18 -3 -26 -6 -19 -9 22 -22 13 -17 -13 3 -17 -2 -27 -15 -34
-12 -7 -24 -31 -31 -63 -7 -29 -24 -78 -38 -108 -13 -30 -26 -66 -27 -80 -2
-14 -3 -29 -4 -33 -1 -5 -6 -5 -11 -2 -6 4 -7 11 -3 18 3 6 -9 -1 -28 -15 -19
-15 -63 -34 -99 -44 -83 -22 -96 -34 -40 -36 25 -1 59 -2 76 -3 21 -2 37 5 52
21 11 13 15 24 9 24 -7 0 -3 6 8 12 11 7 22 11 25 11 3 -1 10 3 17 9 8 7 20 4
37 -9 26 -18 33 -38 17 -47 -4 -3 -11 -36 -14 -73 -3 -46 -10 -71 -22 -79 -9
-7 -12 -15 -7 -18 5 -3 1 -28 -9 -58 -10 -29 -18 -61 -19 -71 0 -10 -4 -15
-10 -12 -5 3 -10 -3 -10 -13 0 -18 -24 -37 -41 -34 -4 1 -13 -13 -20 -30 -7
-17 -23 -43 -36 -57 -47 -53 -46 -51 -28 -71 20 -22 9 -44 -26 -55 -10 -4 -19
-12 -19 -18 0 -48 -135 -230 -198 -269 -21 -12 -40 -27 -44 -32 -4 -6 -10 -7
-13 -4 -4 4 -22 -2 -41 -13 -19 -10 -42 -19 -50 -19 -8 0 -25 -5 -37 -12 -12
-7 -33 -12 -47 -13 -14 0 -30 -4 -35 -7 -13 -8 -233 0 -248 9 -5 3 -24 7 -41
9 -24 2 -16 -5 39 -31 39 -18 84 -35 101 -38 41 -6 76 -26 69 -38 -4 -5 -1 -9
4 -9 6 0 11 -13 11 -29 0 -16 7 -36 15 -45 8 -8 15 -30 15 -49 0 -34 0 -35
-52 -41 -76 -8 -123 -1 -147 23 -12 12 -28 21 -36 21 -15 0 -74 58 -75 73 0 4
-20 29 -45 55 -53 55 -132 186 -176 290 -16 40 -58 110 -93 155 -35 45 -87
127 -116 182 -30 55 -54 101 -56 103 -1 2 -39 -16 -84 -40 -62 -32 -93 -56
-124 -95 -36 -47 -49 -55 -111 -74 -102 -32 -162 -77 -236 -176 -26 -34 -49
-55 -67 -58 -15 -4 -57 -18 -94 -31 -37 -14 -78 -24 -90 -22 -16 3 -18 6 -8
10 35 12 157 47 182 52 18 4 36 21 56 53 32 53 71 96 117 132 17 13 21 19 10
15 -11 -5 -44 -8 -74 -6 -30 1 -59 -2 -65 -7 -13 -10 -71 -21 -135 -25 -27 -2
-59 -9 -72 -16 l-23 -13 22 -8 c12 -5 22 -14 22 -21 0 -9 -3 -9 -12 0 -18 18
-52 14 -83 -10 -21 -17 -39 -21 -80 -19 -51 2 -54 1 -94 -46 -22 -26 -41 -51
-41 -55 0 -3 13 -9 30 -13 16 -4 32 -11 35 -16 8 -12 -62 -12 -85 1 -15 8 -27
3 -65 -30 -25 -22 -46 -43 -46 -47 0 -4 14 -11 32 -16 95 -25 291 -228 255
-265 -3 -3 -15 8 -27 24 -45 60 -177 181 -220 202 -68 33 -98 29 -167 -23 -32
-24 -65 -51 -72 -60 -11 -13 -9 -15 11 -15 62 -2 199 -107 318 -245 141 -164
211 -278 225 -370 l7 -40 -19 30 c-10 17 -44 71 -75 120 -141 227 -395 475
-487 475 -17 0 -39 -14 -63 -38 -32 -32 -37 -44 -37 -83 0 -38 4 -48 23 -56
81 -38 484 -426 531 -512 15 -29 26 -54 24 -57 -2 -2 -52 45 -110 104 -172
174 -443 422 -462 422 -3 0 -5 -97 -4 -216 l3 -216 110 -37 c61 -21 121 -43
134 -50 18 -10 22 -10 16 0 -11 17 5 6 86 -56 126 -96 279 -251 279 -282 -1
-14 -7 -11 -27 15 -35 43 -286 250 -321 263 -39 16 -222 80 -254 89 l-28 9 0
-113 0 -112 88 -27 c48 -15 155 -60 237 -101 145 -72 148 -74 107 -75 -32 -1
-62 10 -125 43 -72 39 -258 106 -294 106 -10 0 -13 -22 -13 -85 l0 -85 2260 0
2260 0 0 49 0 49 -101 -39 c-55 -21 -108 -39 -117 -39 -23 1 79 63 155 96 l63
26 0 150 0 150 -52 -46 c-29 -26 -88 -75 -132 -109 -43 -34 -108 -86 -145
-114 -36 -29 -72 -53 -78 -53 -24 0 -13 29 15 44 16 8 35 22 42 31 8 9 70 63
139 121 70 57 145 121 169 142 l43 38 -3 148 -3 148 -35 -48 c-19 -26 -95
-110 -168 -186 -120 -123 -162 -157 -162 -129 0 16 -113 19 -155 4 -25 -9
-112 -17 -236 -22 -108 -5 -201 -11 -205 -13 -5 -3 -116 -9 -246 -12 -208 -6
-238 -5 -238 8 0 8 4 17 10 21 5 3 112 10 237 15 406 18 586 29 678 43 103 15
161 14 158 -2 -6 -24 16 -8 93 72 97 98 198 215 242 279 31 45 32 50 32 146 0
94 -2 101 -29 140 -40 54 -51 60 -51 24 0 -54 -120 -247 -190 -306 -24 -20
-54 -78 -84 -161 -6 -16 -9 -17 -16 -5 -5 8 -6 18 -4 22 11 17 -26 18 -111 3
-49 -8 -165 -20 -259 -25 -94 -6 -220 -15 -281 -20 -60 -6 -181 -12 -268 -15
-136 -4 -158 -3 -164 10 -3 9 -3 18 -1 21 3 2 81 6 174 8 93 2 198 9 234 14
36 6 130 14 210 17 80 4 199 13 265 22 66 9 141 18 166 20 l47 5 35 91 c20 51
40 106 46 122 10 27 11 25 7 -23 -4 -64 2 -60 73 43 57 82 101 169 101 201 0
12 -26 48 -59 84 -54 57 -61 62 -77 49 -15 -12 -16 -12 -10 7 11 34 -10 107
-38 131 -21 18 -34 21 -88 17 l-63 -4 45 13 44 13 -29 11 c-17 7 -70 19 -120
28 -49 9 -103 19 -120 22 -16 3 -45 21 -65 40 -33 31 -83 53 -122 53 -9 0 -36
13 -60 29 -44 29 -66 36 -180 51 -36 5 -81 16 -99 25 -17 9 -47 17 -65 17 -19
0 -36 3 -38 7 -8 14 12 313 21 319 5 4 13 26 16 48 6 33 4 43 -9 48 -9 3 -21
3 -26 0 -8 -5 -9 7 -4 37 51 311 91 691 84 791 -2 40 0 48 15 48 9 0 17 1 17
3 0 1 -7 27 -15 57 -21 80 -19 128 10 175 14 23 25 33 25 23 0 -9 4 -19 9 -22
5 -3 7 15 5 41 -1 26 -7 49 -12 51 -6 2 -8 12 -5 22 4 13 0 20 -10 20 -15 0
-77 63 -97 99 -6 12 -9 32 -7 46 3 27 17 46 17 24 0 -8 14 -34 30 -58 32 -47
43 -31 15 23 -17 33 -19 56 -5 56 6 0 10 9 10 20 0 11 -4 20 -8 20 -9 0 -32
44 -32 62 0 6 13 8 30 6 17 -3 30 -1 30 4 0 4 7 8 15 8 8 0 15 -4 15 -10 0 -5
8 -10 18 -10 10 0 18 -8 19 -17 1 -24 10 -178 18 -330 13 -247 24 -221 20 47
-3 147 -1 256 4 245 l8 -20 5 20 c5 19 6 19 7 -2 0 -12 -5 -23 -11 -26 -10 -4
-10 -7 0 -18 10 -11 12 -10 12 4 0 14 4 16 19 7 23 -12 71 -10 71 3 0 5 6 4
14 -2 10 -8 16 -9 21 -1 9 15 35 12 35 -4 0 -8 -6 -17 -12 -19 -10 -4 -10 -6
0 -6 10 -1 10 -6 2 -21 -11 -21 3 -29 16 -9 3 6 24 9 45 7 21 -2 41 1 43 7 3
6 9 4 15 -5 5 -8 7 -18 5 -22 -3 -4 7 -13 22 -18 21 -8 29 -8 36 2 10 17 81
-22 86 -47 3 -12 0 -15 -10 -10 -9 6 -10 5 -3 -3 6 -6 21 -12 35 -14 l25 -5
-25 -11 c-24 -10 -23 -11 13 -11 32 -1 37 2 37 22 0 16 3 18 9 8 5 -7 6 -22 4
-32 -3 -10 0 -19 6 -19 6 0 11 -5 11 -12 0 -6 18 -28 39 -49 22 -20 37 -40 33
-44 -4 -4 5 -5 19 -2 24 6 26 4 23 -19 -3 -29 12 -20 18 11 4 18 6 17 16 -8 7
-15 22 -32 34 -37 21 -8 21 -9 3 -9 -18 -1 -18 -2 3 -17 15 -11 22 -25 22 -50
0 -22 5 -34 14 -34 8 0 13 -11 12 -32 -1 -37 13 -58 41 -59 10 0 13 -3 5 -6
-22 -9 -14 -42 13 -49 13 -3 27 -15 31 -26 7 -25 -4 -37 -17 -18 -7 13 -10 13
-18 1 -5 -8 -14 -10 -21 -6 -8 5 -11 4 -6 -3 3 -6 0 -17 -8 -25 -8 -8 -16 -32
-19 -53 -3 -37 -4 -36 -5 9 -1 34 -6 47 -15 44 -7 -2 -11 -19 -10 -40 3 -54
12 -53 -307 -42 -124 4 -223 5 -220 2 3 -3 57 -8 120 -11 63 -3 171 -10 240
-15 69 -5 198 -13 288 -17 l162 -7 0 862 0 861 -2260 0 -2260 0 0 -209z m480
-181 c0 -5 -5 -10 -11 -10 -5 0 -7 5 -4 10 3 6 8 10 11 10 2 0 4 -4 4 -10z
m566 -15 c15 -13 8 -25 -11 -20 -8 3 -22 7 -31 10 -8 3 -12 10 -9 15 8 12 35
9 51 -5z m2494 -465 c0 -5 -4 -10 -10 -10 -5 0 -10 5 -10 10 0 6 5 10 10 10 6
0 10 -4 10 -10z m205 -21 c8 -12 45 -12 45 1 0 5 7 7 15 3 9 -3 14 -10 12 -16
-6 -18 -62 -25 -81 -11 -9 6 -27 9 -38 6 -19 -5 -20 -3 -8 9 16 17 47 22 55 8z
m106 -42 c-1 -12 -15 -9 -19 4 -3 6 1 10 8 8 6 -3 11 -8 11 -12z m-561 -1 c0
-3 -4 -8 -10 -11 -5 -3 -10 -1 -10 4 0 6 5 11 10 11 6 0 10 -2 10 -4z m647
-48 c-3 -8 -6 -5 -6 6 -1 11 2 17 5 13 3 -3 4 -12 1 -19z m20 -50 c-3 -8 -6
-5 -6 6 -1 11 2 17 5 13 3 -3 4 -12 1 -19z m103 12 c0 -5 -4 -10 -10 -10 -5 0
-10 5 -10 10 0 6 5 10 10 10 6 0 10 -4 10 -10z m5 -30 c-3 -5 -10 -10 -16 -10
-5 0 -9 5 -9 10 0 6 7 10 16 10 8 0 12 -4 9 -10z m-735 -140 c-25 -50 -25
-106 0 -170 31 -78 29 -84 -28 -77 -26 3 -59 11 -73 17 -24 11 -25 13 -17 83
5 40 13 92 19 117 5 25 11 72 13 105 2 33 4 61 5 63 0 2 23 -20 51 -48 l50
-51 -20 -39z m754 82 c0 -12 3 -22 8 -22 4 0 8 -8 8 -17 -1 -17 -2 -17 -15 0
-7 11 -11 25 -8 33 4 10 0 12 -11 8 -11 -4 -16 -1 -16 11 0 10 6 15 18 13 10
-2 17 -12 16 -26z m-2939 -91 c-20 -40 -25 -39 -22 7 1 22 8 39 17 43 21 9 24
-14 5 -50z m3015 19 c0 -5 -4 -10 -10 -10 -5 0 -10 5 -10 10 0 6 5 10 10 10 6
0 10 -4 10 -10z m-2930 -162 c0 -9 4 -19 9 -22 5 -3 21 -50 36 -104 33 -117
30 -127 -43 -152 -63 -22 -65 -18 -50 90 11 75 11 82 -10 122 -12 24 -27 50
-34 59 -9 13 -5 24 23 59 l34 42 17 -39 c10 -21 18 -46 18 -55z m3036 62 c8 0
14 -4 14 -10 0 -5 -9 -10 -20 -10 -14 0 -20 6 -19 23 0 12 3 16 6 10 2 -7 11
-13 19 -13z m-1271 -8 c-3 -3 -11 0 -18 7 -9 10 -8 11 6 5 10 -3 15 -9 12 -12z
m1367 -23 c5 -3 3 -9 -6 -12 -12 -5 -16 0 -15 21 0 16 3 21 6 12 3 -8 10 -18
15 -21z m-42 -5 c0 -8 -4 -12 -10 -9 -5 3 -10 10 -10 16 0 5 5 9 10 9 6 0 10
-7 10 -16z m71 -37 c-16 -16 -25 -1 -10 16 8 8 16 11 18 5 2 -5 -2 -15 -8 -21z
m-1381 -13 c0 -8 -4 -12 -10 -9 -5 3 -10 10 -10 16 0 5 5 9 10 9 6 0 10 -7 10
-16z m1308 -44 c-2 -33 -18 -42 -18 -10 0 11 -5 20 -11 20 -5 0 -7 5 -4 10 14
23 35 10 33 -20z m49 -2 c-3 -8 -6 -5 -6 6 -1 11 2 17 5 13 3 -3 4 -12 1 -19z
m23 -33 c0 -2 -9 -9 -19 -14 -14 -8 -20 -7 -25 4 -4 11 2 15 19 15 14 0 25 -2
25 -5z m45 -14 c3 -5 1 -12 -4 -15 -5 -3 -11 1 -15 9 -6 16 9 21 19 6z m-31
-47 c5 -14 4 -15 -9 -4 -17 14 -19 20 -6 20 5 0 12 -7 15 -16z m-1334 -14 c0
-5 -2 -10 -4 -10 -3 0 -8 5 -11 10 -3 6 -1 10 4 10 6 0 11 -4 11 -10z m237
-237 c-3 -10 -5 -2 -5 17 0 19 2 27 5 18 2 -10 2 -26 0 -35z m-1982 -23 c-10
-11 -19 -34 -20 -50 -4 -46 -15 -49 -15 -4 0 21 -3 50 -6 64 -4 17 -3 21 4 12
7 -10 11 -10 22 3 9 11 16 13 23 6 7 -7 5 -17 -8 -31z m1778 -446 c-7 -3 -9
-13 -6 -22 4 -14 3 -14 -5 -2 -12 16 -7 30 11 29 9 0 9 -2 0 -5z m155 -196 c2
-40 0 -124 -4 -186 l-6 -113 -43 40 c-24 22 -63 49 -87 62 -23 12 -44 22 -45
23 -1 1 9 40 23 86 13 47 29 101 34 120 9 35 10 35 67 38 l58 3 3 -73z m-50
-377 c3 -8 -1 -12 -9 -9 -7 2 -15 10 -17 17 -3 8 1 12 9 9 7 -2 15 -10 17 -17z
m138 -10 c-44 -7 -40 -14 29 -49 49 -25 107 -86 124 -129 12 -28 20 -34 75
-47 l61 -14 -55 -1 c-40 -1 -65 5 -90 21 -26 16 -56 23 -117 26 -62 3 -83 8
-83 18 0 19 111 18 162 0 l38 -14 -26 32 c-38 45 -101 94 -156 119 -66 30 -61
43 15 44 50 0 54 -1 23 -6z m-1926 -19 c0 -4 -18 -26 -40 -47 -23 -23 -40 -49
-40 -61 0 -13 -10 -30 -22 -38 -36 -25 -42 -19 -14 15 14 17 26 38 26 47 1 27
25 64 51 78 28 15 39 17 39 6z m2120 -31 c54 -43 79 -53 114 -47 22 4 38 1 51
-10 19 -15 19 -15 -4 -10 -14 3 -31 0 -38 -5 -14 -12 -121 37 -163 76 -14 12
-32 25 -40 29 -8 3 -1 4 15 0 17 -3 46 -18 65 -33z m-2640 -51 c12 -8 11 -10
-7 -10 -12 0 -25 5 -28 10 -8 13 15 13 35 0z m2924 -40 c7 -7 1 -7 -19 -1 -54
17 -61 21 -25 16 19 -3 39 -10 44 -15z m-2929 -10 c-3 -5 -12 -10 -18 -10 -7
0 -6 4 3 10 19 12 23 12 15 0z m488 -24 c-4 -7 -22 -25 -39 -40 -37 -30 -94
-34 -159 -11 -55 20 -94 19 -140 -5 -47 -24 -56 -20 -19 9 45 35 99 47 147 31
23 -7 66 -14 94 -14 44 -1 55 3 68 22 18 24 62 32 48 8z m-795 -13 c-10 -2
-26 -2 -35 0 -10 3 -2 5 17 5 19 0 27 -2 18 -5z m207 -3 c3 -5 -1 -10 -9 -10
-8 0 -18 5 -21 10 -3 6 1 10 9 10 8 0 18 -4 21 -10z m3196 -64 c19 -3 44 -13
55 -22 18 -15 18 -15 -6 -10 -14 3 -35 6 -47 6 -13 0 -37 14 -55 31 -26 25
-28 28 -8 17 14 -8 41 -18 61 -22z m-45 -81 c22 -15 51 -25 72 -25 51 0 152
-22 152 -33 0 -19 -162 2 -215 28 -46 21 -52 22 -84 9 -18 -8 -60 -14 -93 -14
-42 0 -68 -5 -86 -19 -43 -30 -81 -33 -159 -13 -45 12 -90 17 -122 14 -42 -4
-51 -2 -51 11 0 27 84 33 149 11 76 -26 139 -24 181 6 24 17 52 25 111 30 44
4 82 10 86 14 11 10 20 7 59 -19z m-3267 2 c14 -6 26 -18 29 -25 3 -11 0 -12
-16 -3 -11 6 -41 11 -66 11 -34 0 -46 4 -46 15 0 19 64 20 99 2z m2147 -104
c-14 -25 -26 -51 -26 -57 0 -17 -58 -78 -68 -72 -9 5 -42 -28 -42 -43 0 -5
-13 -15 -30 -23 -16 -7 -30 -16 -30 -20 0 -5 -4 -8 -10 -8 -5 0 -10 7 -10 15
0 8 -4 15 -10 15 -5 0 -10 -9 -10 -20 0 -11 -4 -20 -10 -20 -15 0 -12 36 5 50
8 7 12 16 9 21 -8 14 39 80 109 152 15 16 27 33 27 38 0 5 7 9 15 9 7 0 18 6
22 14 11 18 51 38 63 31 6 -3 11 0 11 7 1 7 4 0 6 -15 3 -17 -5 -44 -21 -74z
m-1675 46 c38 -17 62 -20 111 -17 35 3 71 8 81 13 13 5 17 2 17 -12 0 -43
-133 -57 -203 -22 -35 19 -52 21 -117 16 -41 -4 -106 -16 -145 -27 -83 -24
-155 -27 -155 -6 0 10 16 15 53 18 28 3 88 14 132 26 74 19 113 27 158 31 10
0 40 -9 68 -20z m-395 -144 c44 -33 39 -40 -12 -19 -24 10 -54 14 -81 11 -36
-4 -43 -2 -43 13 0 10 6 21 13 24 26 12 89 -3 123 -29z m3326 -2 c38 -10 68
-22 68 -26 0 -18 -36 -19 -81 -4 -58 21 -80 21 -144 1 -50 -15 -99 -19 -362
-28 -118 -5 -143 -3 -143 8 0 21 53 29 145 21 64 -5 93 -3 130 10 33 11 65 14
104 10 41 -4 72 -1 116 14 64 21 64 21 167 -6z m-2940 -73 c26 -19 39 -21 97
-17 36 3 76 8 89 12 18 6 22 4 22 -13 0 -15 -10 -22 -44 -31 -72 -18 -126 -13
-171 14 -47 29 -86 31 -185 9 -55 -13 -77 -14 -96 -5 -27 12 -33 35 -6 27 9
-3 51 3 92 14 93 24 161 20 202 -10z m1404 -87 c-11 -11 -19 6 -11 24 8 17 8
17 12 0 3 -10 2 -21 -1 -24z m-171 -3 c9 7 15 8 20 1 3 -6 -6 -13 -20 -17 -30
-7 -40 -1 -29 17 6 10 9 10 12 1 3 -10 7 -10 17 -2z m429 -29 c-1 -16 -21 -65
-44 -110 l-42 -81 56 -170 c31 -95 56 -173 56 -176 0 -2 -8 -4 -18 -4 -14 0
-29 35 -73 165 l-55 166 -72 -96 c-40 -53 -72 -102 -72 -109 0 -7 18 -54 40
-106 30 -71 37 -96 29 -107 -9 -10 -5 -13 22 -15 52 -2 71 1 104 16 59 27 151
49 233 54 79 5 84 4 80 -14 -3 -16 -16 -20 -88 -26 -46 -4 -104 -14 -129 -22
-26 -7 -62 -17 -81 -21 -19 -4 -40 -12 -47 -17 -7 -6 -43 -7 -89 -3 -74 7 -76
8 -51 22 24 12 26 16 15 36 -6 12 -26 56 -43 98 l-31 76 -60 -88 c-32 -49 -61
-88 -64 -88 -3 0 -31 36 -64 80 -32 44 -60 78 -61 77 -1 -2 -26 -56 -54 -120
l-53 -117 -45 -7 c-61 -9 -127 6 -131 30 -4 16 1 18 32 12 20 -3 52 -9 71 -12
l35 -6 40 86 c22 48 47 108 56 134 l17 47 -68 90 c-37 50 -69 92 -71 94 -4 5
-13 -17 -84 -207 -49 -131 -61 -155 -86 -169 -34 -18 -129 -27 -479 -44 -231
-11 -264 -11 -295 3 -19 9 -69 21 -110 28 -41 6 -93 15 -115 20 -22 5 -78 12
-124 15 -96 7 -101 9 -101 37 0 19 4 20 73 13 120 -11 341 -51 367 -66 19 -10
69 -13 221 -11 108 2 223 7 255 12 33 4 114 6 181 5 l121 -4 42 132 c23 73 56
163 72 200 28 65 29 70 13 93 l-16 25 33 -16 c18 -9 41 -20 51 -26 10 -5 22
-7 27 -4 5 3 11 1 15 -4 3 -6 12 -8 20 -4 8 3 15 0 15 -6 0 -19 17 -12 23 10
3 12 10 18 16 14 6 -3 26 1 45 10 19 9 43 14 53 11 10 -3 44 0 74 8 30 8 64
14 74 12 11 -2 26 3 33 11 7 7 23 13 34 13 11 0 22 8 25 19 3 12 11 17 19 14
8 -3 21 0 29 7 8 7 22 10 30 6 9 -3 13 -2 10 4 -4 6 7 13 23 16 17 3 50 24 73
45 52 47 66 49 63 10z m-1996 -17 c49 -9 97 -25 113 -36 22 -17 41 -21 90 -19
54 1 65 -1 89 -24 35 -34 106 -42 216 -25 86 13 133 8 141 -16 2 -7 -22 -14
-69 -18 -40 -3 -99 -9 -130 -12 -74 -8 -121 1 -157 31 -21 18 -41 25 -72 25
-24 0 -66 9 -94 19 -55 21 -205 51 -254 51 -24 0 -31 4 -31 20 0 25 39 26 158
4z m3310 10 c36 -10 27 -34 -12 -34 -19 0 -65 -6 -103 -14 -88 -18 -159 -25
-313 -31 -69 -2 -179 -11 -245 -20 -66 -8 -128 -15 -138 -15 -33 0 -8 18 46
34 86 24 190 36 397 46 109 6 217 16 245 24 56 16 89 19 123 10z m-1187 -69
c11 -25 27 -76 34 -113 8 -37 23 -93 34 -124 11 -32 23 -78 27 -104 6 -41 5
-46 -11 -42 -21 3 -20 1 -70 193 -21 77 -44 156 -51 174 -29 70 7 84 37 16z
m-1072 -81 c-17 -54 -42 -128 -54 -164 -13 -36 -26 -79 -29 -97 -9 -52 -34
-103 -50 -103 -20 0 -20 5 -1 33 8 12 21 51 30 87 9 36 25 92 35 125 10 33 24
85 30 115 12 65 46 128 61 113 6 -6 -1 -45 -22 -109z m-1073 -109 c27 -9 98
-22 158 -31 61 -8 117 -21 125 -28 34 -30 131 -49 211 -41 41 4 129 9 195 9
66 1 141 6 168 10 43 8 47 7 47 -11 0 -13 -9 -23 -22 -27 -13 -4 -126 -12
-252 -17 -204 -9 -234 -8 -280 7 -28 9 -54 21 -57 26 -3 5 -51 16 -105 23 -54
7 -128 20 -164 29 -36 9 -82 16 -102 16 -34 0 -38 3 -38 25 0 22 4 25 33 25
19 0 56 -7 83 -15z m1614 -480 c-23 -57 -43 -76 -61 -58 -7 7 1 33 23 77 28
57 34 64 47 52 12 -13 11 -22 -9 -71z m1673 9 c28 -4 47 -12 47 -20 0 -22 -36
-25 -101 -9 l-62 16 -33 -32 c-39 -38 -105 -53 -170 -39 -33 8 -71 6 -142 -4
-53 -8 -185 -18 -292 -21 -107 -4 -208 -8 -224 -9 -31 -1 -41 11 -27 32 6 10
72 15 263 21 141 5 262 12 269 17 7 4 80 8 163 8 l149 1 21 28 c23 31 14 30
139 11z m-3108 -92 c39 -6 90 -18 115 -28 61 -22 306 -20 606 6 279 24 314 25
314 5 0 -18 -14 -21 -155 -35 -60 -6 -148 -16 -195 -21 -47 -6 -182 -13 -300
-16 -188 -5 -221 -3 -260 12 -25 9 -73 20 -106 25 -34 4 -68 11 -75 16 -8 5
-59 9 -114 9 -92 0 -100 2 -103 20 -3 19 3 20 100 18 57 0 135 -6 173 -11z
m2085 1 c-1 -21 -21 -31 -80 -37 -93 -9 -175 -23 -250 -41 -39 -9 -84 -13
-112 -10 -44 5 -48 4 -48 -15 0 -13 -5 -20 -12 -18 -7 3 -13 10 -12 16 1 7 2
24 3 38 1 25 2 26 50 19 48 -6 135 6 192 27 53 19 269 36 269 21z m-553 -79
c6 -18 -136 -37 -296 -40 -141 -3 -181 4 -181 29 0 9 33 11 127 9 71 -2 148 1
173 7 59 12 172 9 177 -5z m1508 -34 l60 -21 -84 5 c-89 6 -97 8 -86 25 9 16
43 13 110 -9z"/>
<path d="M400 4109 c0 -5 5 -7 10 -4 6 3 10 8 10 11 0 2 -4 4 -10 4 -5 0 -10
-5 -10 -11z"/>
<path d="M748 4103 c7 -3 16 -2 19 1 4 3 -2 6 -13 5 -11 0 -14 -3 -6 -6z"/>
<path d="M688 4093 c6 -2 18 -2 25 0 6 3 1 5 -13 5 -14 0 -19 -2 -12 -5z"/>
<path d="M3520 3600 c0 -5 5 -10 10 -10 6 0 10 5 10 10 0 6 -4 10 -10 10 -5 0
-10 -4 -10 -10z"/>
<path d="M3580 3600 c0 -5 5 -10 10 -10 6 0 10 5 10 10 0 6 -4 10 -10 10 -5 0
-10 -4 -10 -10z"/>
<path d="M3955 3420 c-4 -6 5 -10 19 -10 14 0 26 5 26 10 0 6 -9 10 -19 10
-11 0 -23 -4 -26 -10z"/>
<path d="M1062 2952 c-1 -29 -7 -62 -12 -72 -6 -12 -7 -21 -1 -25 13 -8 23 50
18 105 l-4 45 -1 -53z"/>
<path d="M1722 2856 c-17 -7 -38 -18 -45 -25 -10 -11 -9 -12 3 -6 11 6 10 2
-3 -12 -16 -18 -16 -21 -2 -27 9 -3 14 -9 12 -13 -3 -5 11 -9 30 -10 52 -3
193 -35 188 -43 -4 -6 83 -7 212 -2 94 4 37 51 -127 105 -116 39 -217 51 -268
33z"/>
<path d="M3533 2853 c9 -2 23 -2 30 0 6 3 -1 5 -18 5 -16 0 -22 -2 -12 -5z"/>
<path d="M3618 2853 c7 -3 16 -2 19 1 4 3 -2 6 -13 5 -11 0 -14 -3 -6 -6z"/>
<path d="M1051 2784 c0 -11 3 -14 6 -6 3 7 2 16 -1 19 -3 4 -6 -2 -5 -13z"/>
<path d="M2920 2721 c8 -5 26 -12 40 -16 24 -7 24 -7 5 9 -11 8 -29 15 -40 15
-16 0 -17 -1 -5 -8z"/>
<path d="M3527 2713 c-4 -3 -7 -14 -7 -24 0 -10 -7 -16 -17 -15 -14 1 -19 -10
-24 -54 -3 -30 -9 -70 -14 -89 -6 -28 -5 -33 8 -28 11 4 17 -2 20 -21 4 -27 4
-27 6 3 l1 30 20 -25 c20 -24 21 -25 35 -6 17 23 22 141 5 131 -5 -3 -10 1
-10 9 0 9 5 16 10 16 11 0 13 39 4 64 -6 16 -26 21 -37 9z m-10 -160 c-3 -10
-5 -4 -5 12 0 17 2 24 5 18 2 -7 2 -21 0 -30z"/>
<path d="M3641 2704 c0 -11 3 -14 6 -6 3 7 2 16 -1 19 -3 4 -6 -2 -5 -13z"/>
<path d="M2420 2697 c0 -19 -31 -27 -104 -27 -70 0 -71 -6 -1 -13 28 -3 51 -6
53 -6 2 -1 1 -4 -1 -8 -3 -5 -1 -17 3 -27 6 -18 8 -16 21 12 14 33 39 51 39
29 0 -21 -59 -79 -72 -71 -10 6 -11 4 0 -7 14 -15 16 -49 3 -49 -5 0 -12 6
-14 13 -4 8 -6 8 -6 -2 -1 -19 53 -128 80 -161 16 -20 15 -14 -5 27 -28 57
-31 67 -16 58 11 -7 12 18 1 55 -9 30 5 88 27 114 19 20 64 46 93 51 58 11 47
22 -25 24 -60 1 -76 -1 -76 -12z"/>
<path d="M2024 2689 c-49 -3 -69 -6 -43 -7 25 -1 49 -6 55 -11 5 -4 30 -14 56
-21 26 -7 53 -19 59 -26 6 -8 16 -14 22 -14 5 0 3 8 -6 18 -19 20 -23 52 -7
52 6 0 10 5 10 10 0 6 -13 9 -29 8 -16 -2 -68 -6 -117 -9z"/>
<path d="M4400 2667 c0 -20 -4 -37 -10 -37 -5 0 -10 -6 -10 -13 0 -7 8 -13 19
-13 16 0 17 6 13 46 -6 56 -12 65 -12 17z"/>
<path d="M1868 2683 c7 -3 16 -2 19 1 4 3 -2 6 -13 5 -11 0 -14 -3 -6 -6z"/>
<path d="M2586 2673 c-35 -6 -77 -18 -92 -26 -36 -19 -80 -65 -71 -74 4 -3 7
-2 7 3 0 5 24 8 52 7 43 -1 53 -4 51 -18 0 -11 4 -14 14 -11 8 3 21 6 29 6 8
0 14 8 14 18 0 37 21 42 47 11 16 -19 34 -29 52 -29 33 0 71 37 71 68 0 22 15
28 36 14 6 -4 10 -15 8 -24 -1 -13 5 -18 22 -18 28 0 32 -21 7 -46 -17 -17
-17 -18 0 -11 10 4 22 7 27 7 5 0 11 8 15 19 3 10 23 38 45 61 22 24 40 47 40
50 0 12 -304 6 -374 -7z"/>
<path d="M1830 2636 c-19 -8 -71 -22 -115 -32 -91 -20 -98 -24 -89 -47 8 -23
36 -29 69 -17 19 7 31 7 40 0 10 -8 15 -4 20 20 4 16 10 30 15 30 5 0 15 3 24
6 12 4 16 0 16 -15 0 -28 43 -71 71 -71 12 0 37 16 56 36 l34 36 11 -29 c9
-24 17 -30 39 -29 23 1 25 4 18 19 -9 15 -6 17 18 16 15 -1 46 6 67 16 l40 17
-25 19 c-50 38 -235 53 -309 25z"/>
<path d="M3025 2625 c-3 -16 -13 -59 -22 -94 -21 -83 -23 -105 -14 -139 8 -27
8 -26 34 24 22 43 65 215 50 200 -3 -3 -14 5 -23 17 l-18 22 -7 -30z"/>
<path d="M1580 2630 c-9 -6 -10 -10 -3 -10 6 0 15 5 18 10 8 12 4 12 -15 0z"/>
<path d="M3092 2605 c-16 -34 -15 -46 1 -39 10 4 21 64 12 64 -1 0 -7 -11 -13
-25z"/>
<path d="M4445 2599 c-4 -12 -2 -26 5 -33 10 -8 11 -6 5 12 -8 27 12 30 31 5
12 -17 13 -17 20 0 8 21 7 22 -28 31 -21 5 -28 2 -33 -15z"/>
<path d="M1520 2595 c-7 -9 -11 -17 -9 -20 3 -2 10 5 17 15 14 24 10 26 -8 5z"/>
<path d="M1575 2590 c-3 -6 1 -7 9 -4 18 7 21 14 7 14 -6 0 -13 -4 -16 -10z"/>
<path d="M2255 2580 c28 -12 57 -12 50 0 -3 6 -21 10 -38 9 -27 0 -29 -2 -12
-9z"/>
<path d="M3071 2504 c-19 -75 -23 -100 -12 -83 12 19 33 110 27 116 -3 3 -9
-12 -15 -33z"/>
<path d="M2575 2512 c3 -8 5 -15 5 -17 0 -3 18 -9 40 -15 35 -9 42 -8 60 10
12 12 33 20 55 20 19 0 35 3 35 8 0 4 -45 7 -100 7 -79 0 -99 -3 -95 -13z"/>
<path d="M1072 2500 c0 -14 2 -19 5 -12 2 6 2 18 0 25 -3 6 -5 1 -5 -13z"/>
<path d="M1450 2501 c0 -5 9 -7 20 -4 11 3 20 7 20 9 0 2 -9 4 -20 4 -11 0
-20 -4 -20 -9z"/>
<path d="M1003 2485 c-9 -25 3 -167 17 -197 8 -17 22 -28 39 -30 14 -2 27 -10
28 -18 9 -69 15 -90 29 -90 25 0 15 134 -16 228 -31 95 -39 109 -51 91 -6 -10
-9 -8 -9 9 0 25 -27 31 -37 7z m54 -77 c-3 -8 -6 -5 -6 6 -1 11 2 17 5 13 3
-3 4 -12 1 -19z m63 -180 c0 -10 -4 -18 -10 -18 -5 0 -10 8 -10 19 0 10 -7 24
-15 31 -8 7 -15 17 -15 23 0 6 7 2 15 -9 13 -18 14 -18 9 6 -4 22 -3 22 10 -5
9 -16 15 -38 16 -47z"/>
<path d="M1944 2473 c-17 -17 -17 -18 10 -21 27 -3 56 12 56 29 0 16 -48 10
-66 -8z"/>
<path d="M3032 2375 c-17 -37 -14 -45 4 -12 9 16 14 31 11 33 -2 2 -9 -7 -15
-21z"/>
<path d="M2471 2305 c7 -17 21 -42 31 -57 10 -14 18 -38 18 -51 0 -14 5 -29
12 -33 7 -5 9 -1 6 13 -5 19 -1 20 63 16 80 -4 90 9 22 27 -48 12 -98 44 -141
90 l-24 25 13 -30z"/>
<path d="M1632 2214 c10 -10 20 -16 22 -13 3 3 -5 11 -17 18 -21 13 -21 12 -5
-5z"/>
<path d="M2050 2205 c-14 -8 -47 -19 -75 -26 -39 -10 -46 -14 -30 -20 22 -8
64 -1 83 14 7 5 15 7 19 3 3 -3 0 -6 -7 -6 -7 0 -10 -3 -7 -7 8 -7 57 35 57
49 0 11 -11 10 -40 -7z"/>
<path d="M2390 2051 c-53 -21 -113 -34 -106 -23 8 14 -91 7 -108 -7 -9 -8 -16
-26 -16 -41 0 -39 42 -56 99 -39 51 15 66 4 75 -53 5 -29 10 -38 15 -29 5 7 6
22 4 32 -9 34 3 48 34 40 29 -8 129 11 145 27 5 5 11 25 15 46 6 35 5 37 -18
31 -17 -4 -32 0 -48 14 -29 25 -33 25 -91 2z"/>
<path d="M1394 1870 c-92 -27 -144 -53 -196 -99 -47 -42 -115 -126 -72 -89 10
9 46 24 79 33 57 17 125 69 125 96 0 5 29 23 65 39 36 16 65 32 65 35 0 3 -1
4 -2 4 -2 -1 -30 -9 -64 -19z"/>
<path d="M2734 1776 c-4 -11 -13 -12 -39 -5 -20 6 -42 6 -59 0 -14 -6 -66 -8
-119 -4 -74 4 -99 2 -123 -10 -23 -12 -40 -14 -69 -7 -28 6 -66 3 -139 -11
-55 -11 -112 -18 -125 -16 -36 7 -75 -10 -94 -42 -15 -25 -15 -30 -2 -41 11
-9 19 -8 37 4 12 9 39 16 60 16 21 0 38 5 38 11 0 12 64 7 142 -10 59 -14 121
-16 176 -7 36 7 42 5 42 -9 0 -10 -5 -15 -13 -12 -7 3 -28 -4 -47 -14 -19 -10
-29 -18 -21 -19 15 0 6 -14 -10 -16 -5 -1 -10 -2 -11 -4 -2 -1 -28 -3 -58 -5
-30 -1 -57 -3 -59 -4 -3 -1 4 -8 15 -16 19 -14 19 -15 -3 -21 -35 -10 -29 -34
8 -34 21 0 30 -4 26 -13 -9 -25 114 -25 151 0 15 10 45 27 67 39 27 14 55 43
90 95 l50 74 48 0 c54 1 67 12 67 63 0 32 -16 44 -26 18z"/>
<path d="M2855 1690 c-3 -5 1 -10 10 -10 9 0 13 5 10 10 -3 6 -8 10 -10 10 -2
0 -7 -4 -10 -10z"/>
</g>
</svg>
